<?xml version="1.0" standalone="no"?>
<!DOCTYPE svg PUBLIC "-//W3C//DTD SVG 20010904//EN"
 "http://www.w3.org/TR/2001/REC-SVG-20010904/DTD/svg10.dtd">
<svg version="1.0" xmlns="http://www.w3.org/2000/svg"
 width="265.000000pt" height="265.000000pt" viewBox="0 0 265.000000 265.000000"
 preserveAspectRatio="xMidYMid meet">
<metadata>
Created by potrace 1.14, written by Peter Selinger 2001-2017
</metadata>
<g transform="translate(0.000000,265.000000) scale(0.100000,-0.100000)"
fill="#000000" stroke="none">
<path d="M1303 2384 c3 -5 -56 -8 -141 -8 -81 1 -151 -2 -157 -6 -5 -4 -18 -6
-27 -5 -10 2 -18 -1 -18 -6 0 -6 -4 -8 -9 -4 -6 3 -14 -3 -20 -12 -6 -10 -11
-14 -11 -9 0 13 -63 -54 -78 -84 -7 -14 -14 -42 -15 -62 -1 -20 -5 -34 -9 -32
-4 3 -5 -27 -3 -66 3 -50 1 -69 -7 -64 -7 5 -8 2 -2 -7 14 -23 17 -62 3 -53
-8 5 -9 3 -3 -7 14 -23 17 -62 3 -53 -8 5 -9 3 -3 -7 13 -22 14 -43 1 -51 -9
-6 -9 -8 -1 -8 21 0 25 -32 7 -53 -10 -11 -12 -17 -5 -13 8 5 12 0 12 -14 0
-13 -4 -19 -12 -14 -7 5 -8 3 -2 -7 13 -20 14 -280 1 -272 -6 4 -7 1 -1 -8 13
-21 14 -120 1 -112 -6 4 -7 1 -1 -8 14 -23 17 -62 3 -53 -8 5 -9 3 -3 -7 14
-23 17 -62 3 -54 -8 5 -8 2 -1 -11 5 -11 8 -48 7 -84 -1 -36 3 -71 9 -79 9
-12 8 -13 -3 -6 -11 6 -12 5 -5 -6 4 -8 9 -20 10 -27 4 -26 35 -82 45 -82 6 0
7 -4 4 -10 -3 -5 -2 -10 2 -10 5 0 20 -11 35 -24 14 -14 28 -22 32 -19 3 3 13
0 21 -7 9 -7 35 -15 58 -17 77 -7 157 -8 157 -2 0 4 16 3 35 -1 19 -4 35 -4
35 1 0 4 6 6 13 4 20 -8 107 -11 107 -4 0 4 8 5 18 3 32 -7 142 -9 142 -3 0 4
8 5 18 3 32 -7 142 -9 142 -3 0 4 8 5 18 3 33 -8 152 -9 152 -1 0 4 5 7 11 7
5 0 7 -5 3 -11 -4 -8 0 -8 15 0 13 8 21 8 21 2 0 -7 9 -7 26 -1 14 6 23 7 21
2 -3 -4 26 -7 64 -7 38 0 69 2 69 5 0 3 26 6 57 7 32 1 59 7 61 13 2 5 7 8 12
5 5 -3 26 11 47 32 21 20 43 36 48 34 6 -1 7 0 3 4 -3 4 2 26 13 50 23 52 31
105 15 105 -8 0 -8 2 0 8 6 4 10 18 9 32 -1 14 3 31 9 39 8 11 8 13 0 8 -7 -4
-11 2 -11 18 0 16 4 22 11 18 8 -5 8 -3 0 8 -7 8 -10 35 -9 62 2 30 -1 47 -9
47 -7 0 -8 3 0 8 5 4 9 36 9 72 -1 36 3 71 9 79 8 11 8 13 0 8 -7 -4 -11 2
-11 18 0 16 4 22 11 18 8 -5 8 -3 0 8 -7 8 -10 35 -9 62 2 30 -1 47 -9 47 -7
0 -8 3 0 8 5 4 9 36 9 72 -1 36 3 71 9 79 8 11 8 13 0 8 -7 -4 -12 2 -11 18 0
16 4 22 11 18 8 -5 8 -3 0 8 -7 8 -10 35 -9 62 2 30 -1 47 -9 47 -7 0 -8 3 0
8 5 4 9 36 9 72 -1 36 3 71 9 79 9 12 8 13 -3 6 -11 -6 -13 -4 -8 7 3 9 0 21
-6 28 -9 10 -9 11 3 5 12 -6 12 -5 3 5 -6 7 -9 19 -6 26 3 8 1 14 -5 14 -8 0
-24 32 -24 50 -1 7 -66 70 -73 70 -22 0 -26 1 -21 9 10 16 -68 25 -245 26 -97
1 -182 6 -189 10 -8 5 -11 4 -7 -2 4 -7 -3 -10 -18 -9 -14 0 -25 6 -25 11 0 6
-4 4 -9 -3 -4 -8 -12 -14 -16 -14 -4 0 -12 6 -16 14 -5 7 -9 8 -9 3 0 -12
-122 -11 -141 0 -7 5 -10 4 -6 -2 4 -7 -3 -10 -18 -9 -14 0 -25 6 -25 11 0 6
-4 4 -9 -3 -4 -8 -12 -14 -16 -14 -4 0 -12 6 -16 14 -5 7 -9 8 -9 3 0 -12
-122 -11 -141 0 -7 5 -10 4 -6 -1z m871 -76 c-5 -7 10 -12 29 -9 4 0 7 -4 7
-9 0 -6 5 -10 11 -10 12 0 44 -30 32 -30 -4 0 -3 -4 2 -8 16 -11 49 -66 34
-57 -9 6 -10 4 -3 -6 9 -15 13 -1139 4 -1139 -3 0 -7 -10 -7 -22 -1 -13 -9
-28 -18 -34 -8 -6 -15 -16 -15 -22 0 -14 -59 -50 -94 -56 -16 -3 -31 -7 -34
-10 -2 -3 -14 -1 -25 5 -15 8 -18 8 -12 -1 6 -9 2 -9 -14 -1 -11 7 -21 8 -21
3 0 -10 -36 -9 -46 0 -3 4 -16 3 -28 -2 -13 -5 -30 -4 -40 2 -14 8 -17 8 -11
-2 6 -9 3 -9 -14 -1 -14 8 -21 8 -21 1 0 -5 -5 -10 -11 -10 -5 0 -7 4 -4 10 4
6 -2 7 -17 1 -15 -6 -31 -5 -42 1 -14 8 -17 8 -11 -2 6 -9 3 -9 -14 -1 -14 8
-21 8 -21 1 0 -5 -5 -10 -11 -10 -5 0 -7 4 -4 10 4 6 -2 7 -17 1 -15 -6 -31
-5 -42 1 -14 8 -17 8 -11 -2 6 -9 3 -9 -14 -1 -14 8 -21 8 -21 1 0 -5 -5 -10
-11 -10 -5 0 -8 3 -6 8 3 4 -10 7 -29 7 -19 0 -34 -3 -34 -7 0 -5 -5 -8 -11
-8 -5 0 -7 4 -4 10 4 6 -2 7 -17 1 -15 -6 -31 -5 -42 1 -14 8 -17 8 -11 -2 6
-9 3 -9 -14 -1 -14 8 -21 8 -21 1 0 -5 -5 -10 -11 -10 -5 0 -7 4 -4 10 4 6 -2
7 -17 1 -15 -6 -31 -5 -42 1 -14 8 -17 8 -11 -2 6 -9 3 -9 -14 -1 -14 8 -21 8
-21 1 0 -5 -5 -10 -11 -10 -5 0 -8 3 -6 7 3 5 -8 8 -23 8 -15 0 -26 -3 -23 -7
2 -5 -1 -8 -6 -8 -6 0 -11 6 -12 13 0 8 -2 9 -5 0 -4 -8 -14 -9 -35 -3 -18 5
-27 5 -24 -1 4 -5 1 -9 -4 -9 -6 0 -11 6 -12 13 0 8 -2 8 -5 1 -3 -8 -16 -9
-39 -4 -20 4 -35 4 -35 -1 0 -5 -5 -9 -11 -9 -5 0 -7 4 -4 10 4 6 -2 7 -17 1
-14 -5 -34 -3 -54 5 -17 7 -35 10 -39 6 -5 -4 -5 -1 -1 6 4 6 3 12 -2 12 -19
0 -52 39 -72 84 -11 26 -15 44 -8 40 7 -5 8 -3 2 7 -13 21 -13 179 0 179 8 0
8 3 1 8 -15 10 -17 54 -3 46 7 -5 8 -2 2 7 -13 22 -16 81 -2 73 7 -5 8 -3 2 7
-11 18 -13 139 -2 139 4 0 8 5 8 11 0 5 -4 8 -8 5 -11 -6 -10 139 0 150 4 4 4
12 1 18 -12 19 -12 36 0 36 9 0 9 2 1 8 -14 9 -13 144 1 154 7 5 6 8 -1 8 -7
0 -11 24 -10 65 0 36 4 65 9 65 6 0 5 5 0 13 -8 10 -11 92 -3 92 1 0 3 14 6
30 2 17 4 36 5 43 3 17 53 68 81 83 16 9 19 8 13 -3 -4 -7 0 -6 10 3 15 15 73
17 601 16 321 0 581 -4 578 -9z"/>
<path d="M1006 2131 c-4 -5 -15 -8 -25 -6 -12 2 -21 -3 -24 -16 -3 -13 -1 -17
6 -12 7 4 7 0 -1 -9 -9 -11 -10 -18 -2 -23 6 -3 8 -11 5 -16 -12 -18 -14 -49
-4 -49 6 0 8 -4 5 -8 -3 -5 24 -9 60 -9 43 0 67 3 70 12 9 23 11 106 2 111 -5
3 -6 9 -3 14 3 4 -2 10 -10 14 -8 3 -15 2 -15 -3 0 -11 -32 -10 -47 1 -7 5
-14 5 -17 -1z"/>
<path d="M2134 2129 c-3 -6 -13 -8 -21 -5 -25 10 -40 -17 -39 -72 1 -28 5 -52
9 -52 5 0 6 -4 3 -9 -3 -4 25 -8 62 -7 l67 1 3 49 c4 60 -3 92 -20 94 -7 0
-23 3 -35 6 -13 2 -25 0 -29 -5z"/>
<path d="M1369 1897 c-1 -7 -2 -140 -3 -296 -1 -333 0 -339 85 -280 14 10 31
19 39 21 7 2 24 13 38 26 14 12 27 20 30 18 2 -3 10 0 18 7 34 30 44 37 44 30
0 -4 7 0 14 10 8 10 17 18 20 18 21 -3 26 0 20 11 -5 8 -2 9 10 5 10 -4 19 -1
22 8 4 8 13 15 21 15 8 0 12 4 9 8 -3 5 0 9 7 9 19 0 106 50 100 57 -4 3 2 6
12 6 10 0 15 3 12 7 -4 3 1 11 10 18 14 11 13 14 -15 31 -18 10 -32 22 -32 27
0 4 -4 5 -10 2 -5 -3 -10 -2 -10 2 0 5 -17 17 -37 28 -21 11 -42 23 -48 28
-28 21 -88 58 -98 60 -6 1 -17 7 -23 12 -24 21 -52 38 -59 36 -4 -2 -11 2 -14
7 -3 5 -30 24 -60 42 -56 35 -100 46 -102 27z m87 -87 c-4 9 -2 8 7 -2 8 -10
17 -15 20 -11 4 3 7 2 7 -4 0 -6 14 -16 30 -23 17 -7 30 -16 30 -21 0 -5 7 -9
15 -9 8 0 24 -9 35 -20 11 -11 20 -17 20 -13 0 3 8 -1 18 -10 9 -8 24 -17 32
-19 8 -2 26 -14 39 -28 13 -14 20 -19 17 -13 -5 8 -2 11 8 7 8 -3 17 -12 20
-20 3 -9 11 -12 17 -8 7 4 10 -1 7 -12 -1 -11 -18 -27 -37 -36 -19 -9 -38 -23
-42 -30 -5 -7 -9 -8 -9 -3 0 6 -7 1 -15 -9 -8 -11 -15 -16 -15 -11 0 4 -9 0
-20 -10 -11 -10 -20 -15 -20 -11 0 4 -15 -4 -33 -18 -19 -15 -39 -26 -45 -26
-7 0 -12 -4 -12 -9 0 -5 -13 -14 -30 -21 -16 -7 -30 -17 -30 -22 0 -5 -4 -7
-9 -3 -5 3 -12 1 -16 -5 -13 -22 -21 -8 -19 35 1 28 -2 45 -10 45 -6 0 -5 4 3
9 7 5 11 13 7 19 -3 6 -2 14 4 17 7 4 7 11 2 18 -5 7 -8 21 -6 32 1 11 -2 23
-9 27 -9 6 -8 8 2 8 7 0 11 6 8 15 -4 8 -2 17 4 21 6 3 6 10 1 17 -5 7 -8 21
-6 32 1 10 -3 26 -9 34 -9 12 -9 13 0 8 9 -6 12 4 9 37 -3 52 1 61 22 43 13
-10 15 -9 8 3z"/>
<path d="M2142 1838 c-7 -7 -12 -8 -12 -4 0 5 -8 2 -17 -5 -9 -8 -14 -9 -10
-2 4 7 1 10 -10 9 -20 -3 -25 -52 -9 -75 8 -11 8 -13 -1 -8 -13 8 -13 -47 1
-60 10 -10 66 -11 66 0 0 4 6 5 13 0 19 -12 38 -12 30 0 -4 7 0 8 13 3 10 -4
15 -4 12 -1 -4 4 -3 18 2 31 6 15 6 24 0 24 -6 0 -6 9 0 25 7 17 6 25 -1 25
-6 0 -9 7 -5 15 3 9 -3 19 -16 26 -11 6 -18 7 -14 1 3 -5 -4 -12 -15 -15 -15
-4 -19 -2 -15 9 7 17 4 18 -12 2z"/>
<path d="M964 1823 c-13 -10 -14 -13 -3 -13 11 0 12 -2 1 -9 -8 -4 -14 -12
-14 -16 0 -4 6 -12 14 -16 8 -6 9 -9 1 -9 -13 0 -12 -18 1 -39 7 -10 5 -12 -3
-6 -9 5 -9 2 0 -13 9 -15 17 -18 25 -11 8 7 15 6 19 -2 6 -8 10 -7 16 2 7 12
9 12 9 0 0 -11 3 -11 15 -1 8 7 15 8 15 3 0 -5 9 -9 20 -9 13 0 20 7 21 21 4
81 3 122 -3 118 -5 -2 -8 0 -8 4 0 14 -106 11 -126 -4z"/>
<path d="M1037 1543 c-4 -3 -21 -7 -39 -8 -18 -2 -36 -3 -39 -4 -10 -2 -6 -31
4 -31 5 0 4 -6 -2 -14 -8 -10 -9 -16 -1 -21 6 -3 7 -12 3 -18 -12 -19 -12 -37
-2 -37 6 0 8 -4 5 -8 -3 -5 14 -8 37 -7 23 1 47 -1 53 -6 6 -5 18 -3 29 5 22
16 28 121 8 138 -8 6 -16 8 -20 5 -3 -4 -11 -2 -18 3 -7 5 -15 7 -18 3z"/>
<path d="M2081 1526 c-10 -12 -9 -55 2 -72 3 -6 3 -14 0 -18 -4 -3 -7 -15 -8
-25 -1 -14 4 -18 17 -16 10 2 18 -2 18 -8 0 -8 3 -8 9 1 9 15 17 15 45 0 13
-7 16 -7 11 1 -4 8 2 10 20 7 25 -5 26 -3 24 34 -2 22 0 42 3 46 4 3 3 16 -2
29 -5 13 -7 25 -5 27 3 2 -25 4 -60 4 -36 1 -69 -4 -74 -10z"/>
<path d="M969 1238 c-18 -7 -19 -11 -9 -23 8 -9 8 -15 2 -15 -11 0 -11 -18 1
-37 4 -6 3 -14 -2 -18 -10 -6 -6 -43 5 -54 4 -3 4 3 0 13 -5 16 -4 17 9 6 8
-7 39 -13 68 -14 50 -1 53 1 56 24 7 69 6 112 -4 118 -14 9 -101 9 -126 0z"/>
<path d="M2095 1240 c-16 -6 -20 -17 -21 -58 -1 -32 3 -52 10 -52 6 0 5 -4 -3
-9 -20 -13 1 -22 51 -23 69 0 92 2 85 8 -3 3 -2 17 3 30 6 14 6 24 1 24 -10 0
-9 19 1 35 3 6 1 19 -5 30 -9 15 -23 20 -57 21 -25 1 -54 -2 -65 -6z"/>
<path d="M740 1732 c0 -4 -10 -9 -22 -10 -38 -4 -52 -7 -67 -16 -9 -6 -12 -5
-7 2 4 6 -5 5 -20 -3 -15 -8 -31 -12 -36 -9 -4 3 -8 -1 -8 -8 0 -10 -2 -10 -9
1 -6 9 -11 10 -15 2 -4 -6 -16 -11 -26 -11 -10 0 -31 -5 -47 -12 -15 -6 -34
-10 -40 -9 -7 1 -13 -3 -13 -9 0 -5 -6 -10 -13 -10 -17 0 -80 -68 -94 -100
-27 -66 -33 -94 -20 -102 9 -6 8 -8 -3 -8 -9 0 -11 -3 -5 -8 16 -11 19 -46 3
-36 -10 6 -11 5 -1 -7 6 -8 13 -26 15 -39 2 -14 7 -30 11 -36 4 -7 8 -28 9
-48 2 -20 6 -36 11 -36 4 0 7 -15 7 -34 0 -19 5 -38 10 -41 6 -3 10 -22 10
-41 0 -19 4 -33 8 -30 4 2 8 -3 9 -12 2 -53 8 -82 16 -82 5 0 7 -7 4 -15 -4
-8 -2 -17 4 -21 5 -3 7 -14 4 -25 -4 -10 -2 -19 3 -19 5 0 9 -6 10 -12 5 -43
10 -73 12 -75 1 -2 4 -7 5 -13 1 -5 4 -11 5 -12 1 -2 4 -14 5 -28 4 -27 12
-63 15 -67 2 -2 3 -11 4 -20 1 -10 5 -23 9 -30 6 -10 15 -50 19 -90 1 -7 5
-13 10 -13 4 0 6 -14 3 -30 -3 -18 -1 -30 5 -30 6 0 8 -4 5 -10 -3 -5 -1 -10
5 -10 6 0 9 -4 5 -9 -7 -12 24 -91 36 -91 5 0 9 -6 9 -14 0 -7 11 -21 24 -29
13 -9 31 -23 40 -32 9 -9 16 -14 16 -10 0 3 12 -1 28 -8 15 -8 33 -12 40 -10
6 3 12 0 12 -7 0 -6 5 -8 13 -3 19 12 37 12 37 1 0 -7 4 -7 13 0 13 11 65 24
100 26 9 0 17 4 17 9 0 4 6 7 13 6 33 -4 58 2 51 13 -4 7 -3 8 4 4 6 -4 31 -1
54 5 24 7 51 13 61 15 9 1 18 2 20 4 3 2 21 6 67 15 19 3 37 9 40 13 5 7 23
10 87 15 17 1 29 5 26 10 -4 7 27 11 55 8 6 -1 12 3 12 9 0 6 4 9 9 5 5 -3 12
-1 15 4 4 5 14 8 23 7 10 -2 36 3 59 10 23 7 45 10 48 7 3 -4 6 -2 6 4 0 5 6
10 13 10 6 0 23 3 37 6 126 26 150 32 150 38 0 4 8 6 18 5 9 -2 20 2 24 8 4 6
11 11 16 11 17 0 78 61 74 74 -3 8 0 11 6 8 5 -4 13 3 17 16 4 12 9 29 12 37
3 8 7 42 8 76 l2 60 -33 2 c-32 3 -38 -7 -21 -35 5 -7 5 -13 0 -13 -4 0 -7
-15 -7 -32 1 -18 -3 -39 -9 -47 -6 -7 -12 -20 -13 -29 -6 -35 -91 -89 -149
-94 -14 -1 -25 -5 -25 -8 0 -6 -25 -10 -67 -13 -12 0 -19 -5 -17 -9 3 -4 -5
-8 -18 -9 -47 -2 -168 -29 -168 -39 0 -4 -10 -6 -22 -5 -13 1 -29 -2 -35 -8
-9 -6 -13 -5 -13 4 0 10 -2 11 -8 2 -4 -7 -23 -15 -42 -18 -19 -3 -38 -11 -42
-18 -6 -9 -8 -8 -8 2 0 9 -4 10 -13 4 -6 -5 -19 -9 -27 -8 -8 0 -17 -2 -20 -6
-3 -4 -21 -9 -40 -12 -39 -7 -75 -15 -75 -17 0 -2 -37 -10 -62 -12 -13 -1 -23
-5 -23 -9 0 -3 -14 -6 -32 -7 -17 0 -34 -5 -37 -9 -3 -5 -23 -9 -44 -9 -22 1
-41 -3 -45 -8 -3 -5 1 -6 8 -1 8 5 11 4 7 -2 -9 -14 -133 -9 -151 7 -9 7 -16
9 -16 5 0 -12 -64 58 -78 85 -14 28 -24 67 -24 92 1 10 -4 18 -9 18 -6 0 -8 4
-5 8 3 5 1 26 -5 47 -17 61 -21 79 -21 98 1 9 -3 17 -8 17 -4 0 -7 8 -5 18 1
9 -1 22 -5 27 -6 8 -14 38 -25 100 -1 6 -3 13 -5 18 -5 13 -6 21 -14 70 -5 26
-11 47 -15 47 -3 0 -7 10 -8 23 -3 38 -9 62 -17 75 -4 6 -5 16 -1 21 3 5 0 13
-6 16 -5 4 -8 13 -5 21 3 7 1 16 -4 19 -6 4 -10 19 -10 36 0 16 -3 29 -7 29
-5 0 -8 10 -9 23 -1 26 -8 55 -18 79 -4 9 -5 21 -2 27 4 5 2 12 -4 16 -6 4 -7
11 -4 17 4 6 0 14 -7 19 -11 6 -11 11 -2 20 6 6 9 17 6 25 -9 23 19 88 51 118
34 31 68 48 106 50 14 1 35 7 46 14 12 6 24 9 27 6 3 -3 14 -1 25 5 18 9 38
14 110 25 32 5 53 60 27 70 -8 3 -15 2 -15 -2z"/>
</g>
</svg>
